<svg id="_018-settings" data-name="018-settings" xmlns="http://www.w3.org/2000/svg" width="15" height="15" viewBox="0 0 15 15">
  <g id="Group_61" data-name="Group 61">
    <path id="Path_20" data-name="Path 20" d="M14.666,6.229,12.911,5.8a5.66,5.66,0,0,0-.369-.9l.9-1.494a.437.437,0,0,0-.062-.536L12.129,1.623a.437.437,0,0,0-.536-.062l-1.494.9a5.66,5.66,0,0,0-.9-.369L8.78.334A.451.451,0,0,0,8.35,0H6.592a.451.451,0,0,0-.431.334L5.739,2.089a5.66,5.66,0,0,0-.9.369l-1.494-.9a.437.437,0,0,0-.536.062L1.564,2.871a.437.437,0,0,0-.062.536L2.4,4.9a5.66,5.66,0,0,0-.369.9l-1.7.431A.433.433,0,0,0,0,6.65V8.408a.433.433,0,0,0,.334.422l1.7.431a5.66,5.66,0,0,0,.369.9l-.9,1.494a.437.437,0,0,0,.062.536l1.248,1.248a.437.437,0,0,0,.536.062l1.494-.9a5.66,5.66,0,0,0,.9.369l.422,1.7A.451.451,0,0,0,6.592,15H8.35a.451.451,0,0,0,.431-.334l.422-1.7a5.66,5.66,0,0,0,.9-.369l1.494.9a.437.437,0,0,0,.536-.062l1.248-1.248a.437.437,0,0,0,.062-.536l-.9-1.494a5.66,5.66,0,0,0,.369-.9l1.755-.431A.433.433,0,0,0,15,8.408V6.65A.433.433,0,0,0,14.666,6.229Zm-7.2,3.5a2.2,2.2,0,1,1,2.2-2.2A2.2,2.2,0,0,1,7.471,9.727Z" fill="#fff"/>
  </g>
</svg>
