<svg xmlns="http://www.w3.org/2000/svg" width="15" height="15" viewBox="0 0 15 15">
  <g id="Group_43" data-name="Group 43" transform="translate(-809 -92.025)">
    <path id="Subtraction_7" data-name="Subtraction 7" d="M7128.6-1146.55a.869.869,0,0,1-.619-.256l-2.458-2.455-2.512,2.455a.879.879,0,0,1-.621.256.884.884,0,0,1-.621-.256.879.879,0,0,1-.258-.623.857.857,0,0,1,.258-.619l2.455-2.455-2.455-2.458a.861.861,0,0,1-.258-.623.859.859,0,0,1,.258-.621.872.872,0,0,1,.621-.256.861.861,0,0,1,.621.256l2.512,2.458,2.458-2.458a.872.872,0,0,1,.621-.256.879.879,0,0,1,.621.256.882.882,0,0,1,0,1.244l-2.457,2.458,2.457,2.453a.882.882,0,0,1,0,1.244A.888.888,0,0,1,7128.6-1146.55Z" transform="translate(-6309 1250)" fill="#fff"/>
    <g id="_025-cancel" data-name="025-cancel" transform="translate(809 92.025)">
      <g id="Group_29" data-name="Group 29">
        <path id="Path_13" data-name="Path 13" d="M7.529,0A7.529,7.529,0,0,0,0,7.471,7.58,7.58,0,0,0,7.529,15a7.5,7.5,0,0,0,0-15Zm3.7,9.925a.879.879,0,0,1-1.243,1.243L7.529,8.713,5.016,11.169A.879.879,0,0,1,3.773,9.926L6.228,7.471,3.773,5.016A.879.879,0,0,1,5.016,3.772L7.529,6.228,9.984,3.772a.879.879,0,0,1,1.243,1.243L8.772,7.471Z" fill="#ff3b30"/>
      </g>
    </g>
  </g>
</svg>
