<svg id="_010-exit" data-name="010-exit" xmlns="http://www.w3.org/2000/svg" width="15" height="15" viewBox="0 0 15 15">
  <g id="Group_75" data-name="Group 75" transform="translate(0 4.234)">
    <g id="Group_74" data-name="Group 74">
      <path id="Path_25" data-name="Path 25" d="M8.735,147.252,5.984,144.5c-.234-.235-.658-.15-.658.4a.434.434,0,0,1-.439.433H0v3.078a1.36,1.36,0,0,0,1.375,1.3H4.886a.449.449,0,0,1,.439.451c0,.215,0,.392.237.488a.38.38,0,0,0,.418-.083l2.756-2.756A.4.4,0,0,0,8.735,147.252Z" transform="translate(0 -144.377)" fill="#fff"/>
    </g>
  </g>
  <g id="Group_77" data-name="Group 77" transform="translate(0.081 3.431)">
    <g id="Group_76" data-name="Group 76">
      <path id="Path_26" data-name="Path 26" d="M4.057,117.094a1.387,1.387,0,0,0-1.294.872H5.374V117.1h0Z" transform="translate(-2.763 -117.094)" fill="#fff"/>
    </g>
  </g>
  <g id="Group_79" data-name="Group 79" transform="translate(3.583 0.793)">
    <g id="Group_78" data-name="Group 78">
      <path id="Path_27" data-name="Path 27" d="M122.63,27.094a.439.439,0,0,0-.433.445V30.6h.91a1.242,1.242,0,0,1,.742-.845,1.258,1.258,0,0,1,1.377.274l2.752,2.752a1.261,1.261,0,0,1,.358.825V27.094Z" transform="translate(-122.197 -27.094)" fill="#fff"/>
    </g>
  </g>
  <g id="Group_81" data-name="Group 81" transform="translate(10.611)">
    <g id="Group_80" data-name="Group 80">
      <path id="Path_28" data-name="Path 28" d="M366.036.808,362,0V15l4.036-.808a.44.44,0,0,0,.353-.431V1.239A.44.44,0,0,0,366.036.808Zm-2.28,7.462a.439.439,0,1,1-.878,0V6.512a.439.439,0,1,1,.878,0Z" transform="translate(-362)" fill="#fff"/>
    </g>
  </g>
  <g id="Group_83" data-name="Group 83" transform="translate(3.583 7.479)">
    <g id="Group_82" data-name="Group 82">
      <path id="Path_29" data-name="Path 29" d="M127.976,255.8l-2.755,2.756a1.26,1.26,0,0,1-2.116-.593H122.2v3.295a.414.414,0,0,0,.433.415h5.706v-6.7A1.261,1.261,0,0,1,127.976,255.8Z" transform="translate(-122.196 -254.972)" fill="#fff"/>
    </g>
  </g>
</svg>
