<svg xmlns="http://www.w3.org/2000/svg" width="23.273" height="15" viewBox="0 0 23.273 15">
  <g id="_059-vision" data-name="059-vision" transform="translate(0 -90.998)">
    <g id="Group_67" data-name="Group 67" transform="translate(0 90.998)">
      <g id="Group_66" data-name="Group 66" transform="translate(0 0)">
        <path id="Path_23" data-name="Path 23" d="M23.145,98.1c-.208-.29-5.16-7.1-11.463-7.1S.336,97.811.128,98.1a.68.68,0,0,0,0,.794c.208.29,5.251,7.1,11.554,7.1s11.255-6.813,11.463-7.1A.68.68,0,0,0,23.145,98.1Zm-11.463,5.169a4.774,4.774,0,1,1,0-9.545,4.773,4.773,0,1,1,0,9.545Z" transform="translate(0 -90.998)" fill="#fff"/>
      </g>
    </g>
    <g id="Group_69" data-name="Group 69" transform="translate(9.532 96.439)">
      <g id="Group_68" data-name="Group 68" transform="translate(0 0)">
        <path id="Path_24" data-name="Path 24" d="M212.156,211a2.061,2.061,0,1,0,0,4.118,2.059,2.059,0,1,0,0-4.118Z" transform="translate(-210.006 -210.999)" fill="#fff"/>
      </g>
    </g>
  </g>
</svg>
