<svg id="_014-diskette" data-name="014-diskette" xmlns="http://www.w3.org/2000/svg" width="14.588" height="14.6" viewBox="0 0 14.588 14.6">
  <g id="Group_54" data-name="Group 54" transform="translate(4.274)">
    <g id="Group_53" data-name="Group 53">
      <path id="Path_17" data-name="Path 17" d="M155.186,0V2.992a.427.427,0,1,1-.855,0V0H150V3.846a.428.428,0,0,0,.427.427h5.186a.428.428,0,0,0,.427-.427V0Z" transform="translate(-150)" fill="#fff"/>
    </g>
  </g>
  <g id="Group_56" data-name="Group 56" transform="translate(3.419 7.693)">
    <g id="Group_55" data-name="Group 55">
      <path id="Path_18" data-name="Path 18" d="M127.323,270h-6.9a.428.428,0,0,0-.427.427v.427h7.75v-.427A.428.428,0,0,0,127.323,270Z" transform="translate(-120 -270)" fill="#fff"/>
    </g>
  </g>
  <g id="Group_58" data-name="Group 58" transform="translate(3.079 9.169)">
    <g id="Group_57" data-name="Group 57" transform="translate(0.339 -0.169)">
      <rect id="Rectangle_29" data-name="Rectangle 29" width="7.75" height="5.6" fill="#fff"/>
    </g>
  </g>
  <g id="Group_60" data-name="Group 60">
    <g id="Group_59" data-name="Group 59">
      <path id="Path_19" data-name="Path 19" d="M14.213,2.439,12.149.376A1.291,1.291,0,0,0,11.243,0h-.073V3.846A1.284,1.284,0,0,1,9.887,5.129H4.7A1.284,1.284,0,0,1,3.419,3.846V0H1.282A1.284,1.284,0,0,0,0,1.282V13.306a1.284,1.284,0,0,0,1.282,1.282H2.564V8.12A1.284,1.284,0,0,1,3.846,6.838h6.9A1.284,1.284,0,0,1,12.024,8.12v6.468h1.282a1.284,1.284,0,0,0,1.282-1.282V3.346A1.274,1.274,0,0,0,14.213,2.439Z" fill="#fff"/>
    </g>
  </g>
</svg>
