<svg xmlns="http://www.w3.org/2000/svg" width="14.348" height="15" viewBox="0 0 14.348 15">
  <g id="funnel" transform="translate(-10.667 0)">
    <g id="Group_30" data-name="Group 30" transform="translate(10.667 0)">
      <path id="Path_15" data-name="Path 15" d="M17.841,0c-3.455,0-7.174.612-7.174,1.957,0,.3.231.513.516.787A58.967,58.967,0,0,1,15.418,8.3a2.293,2.293,0,0,1,.467,1.383v4.337c0,.672,1.014.978,1.957.978s1.957-.306,1.957-.978V9.685a2.289,2.289,0,0,1,.354-1.207h2.254a1.3,1.3,0,0,0,1.167-.721l.652-1.3a1.3,1.3,0,0,0-1.118-1.881A19.392,19.392,0,0,1,24.5,2.744c.285-.275.516-.488.516-.787C25.015.612,21.3,0,17.841,0Zm4.565,7.174H21.123l.994-1.3h.94ZM17.841,2.609a17.8,17.8,0,0,1-5.331-.652A17.8,17.8,0,0,1,17.841,1.3a17.8,17.8,0,0,1,5.331.652A17.8,17.8,0,0,1,17.841,2.609Z" transform="translate(-10.667 0)" fill="#ff9500"/>
    </g>
  </g>
</svg>
