<svg xmlns="http://www.w3.org/2000/svg" width="15" height="15" viewBox="0 0 15 15">
  <g id="_052-edit" data-name="052-edit" transform="translate(-0.001 0)">
    <g id="Group_19" data-name="Group 19" transform="translate(8.633 2.015)">
      <g id="Group_18" data-name="Group 18">
        <path id="Path_8" data-name="Path 8" d="M295.388,68.752l-.622.622L298.5,73.1l.622-.622Z" transform="translate(-294.766 -68.752)" fill="#fff"/>
      </g>
    </g>
    <g id="Group_21" data-name="Group 21" transform="translate(9.877 0)">
      <g id="Group_20" data-name="Group 20">
        <path id="Path_9" data-name="Path 9" d="M341.545.771a2.64,2.64,0,0,0-3.73,0l-.622.622,3.731,3.731.622-.622A2.641,2.641,0,0,0,341.545.771Z" transform="translate(-337.193 0)" fill="#fff"/>
      </g>
    </g>
    <g id="Group_23" data-name="Group 23" transform="translate(1.005 9.747)">
      <g id="Group_22" data-name="Group 22">
        <path id="Path_10" data-name="Path 10" d="M34.983,332.778l-.726,1.762,2.487,2.487,1.762-.726Z" transform="translate(-34.257 -332.778)" fill="#fff"/>
      </g>
    </g>
    <g id="Group_25" data-name="Group 25" transform="translate(2.248 3.251)">
      <g id="Group_24" data-name="Group 24">
        <path id="Path_11" data-name="Path 11" d="M82.46,111.18l-5.77,5.77,3.731,3.731,5.77-5.77Z" transform="translate(-76.69 -111.18)" fill="#fff"/>
      </g>
    </g>
    <g id="Group_27" data-name="Group 27" transform="translate(0.001 12.389)">
      <g id="Group_26" data-name="Group 26">
        <path id="Path_12" data-name="Path 12" d="M.642,422.934l-.575,1.4a.88.88,0,0,0,1.148,1.149l1.4-.575Z" transform="translate(-0.001 -422.934)" fill="#fff"/>
      </g>
    </g>
  </g>
</svg>
