<svg xmlns="http://www.w3.org/2000/svg" width="25" height="25" viewBox="0 0 25 25">
  <g id="_036-zoom" data-name="036-zoom" transform="translate(0 0)">
    <g id="Group_11" data-name="Group 11" transform="translate(0 0)">
      <g id="Group_10" data-name="Group 10" transform="translate(0)">
        <path id="Path_3" data-name="Path 3" d="M24.459,21.354l-4.215-4.218a2.006,2.006,0,0,0-2.347-.274L16.741,15.7a9.519,9.519,0,1,0-1.036,1.036L16.862,17.9a2,2,0,0,0,.275,2.347l4.215,4.216a2.208,2.208,0,0,0,3.107-3.107ZM14.177,14.177a6.592,6.592,0,1,1,0-9.322A6.6,6.6,0,0,1,14.177,14.177Z" transform="translate(0 0)" fill="#8e8e93"/>
      </g>
    </g>
  </g>
</svg>
