<svg xmlns="http://www.w3.org/2000/svg" width="15" height="15" viewBox="0 0 15 15">
  <g id="_036-zoom" data-name="036-zoom" transform="translate(0 0)">
    <g id="Group_11" data-name="Group 11" transform="translate(0 0)">
      <g id="Group_10" data-name="Group 10" transform="translate(0)">
        <path id="Path_3" data-name="Path 3" d="M14.676,12.812l-2.529-2.531a1.2,1.2,0,0,0-1.408-.165l-.694-.694a5.712,5.712,0,1,0-.621.622l.694.694a1.2,1.2,0,0,0,.165,1.408l2.529,2.53a1.325,1.325,0,0,0,1.864-1.864ZM8.506,8.506a3.955,3.955,0,1,1,0-5.593A3.959,3.959,0,0,1,8.506,8.506Z" transform="translate(0 0)" fill="#8e8e93"/>
      </g>
    </g>
  </g>
</svg>
