<svg xmlns="http://www.w3.org/2000/svg" width="13.184" height="15" viewBox="0 0 13.184 15">
  <g id="_028-trash" data-name="028-trash" transform="translate(-31)">
    <g id="Group_15" data-name="Group 15" transform="translate(31.903 5.422)">
      <g id="Group_14" data-name="Group 14">
        <path id="Path_6" data-name="Path 6" d="M62.29,180l.772,8.4a1.307,1.307,0,0,0,1.317,1.181h7.2A1.307,1.307,0,0,0,72.9,188.4l.772-8.4Zm3.426,7.846H65.7a.437.437,0,0,1-.44-.413l-.28-6.116a.436.436,0,0,1,.42-.452.42.42,0,0,1,.459.412l.28,6.116A.436.436,0,0,1,65.716,187.846Zm2.7-.432a.441.441,0,0,1-.881,0V181.3a.441.441,0,0,1,.881,0Zm2.282.02a.437.437,0,0,1-.44.413h-.02a.436.436,0,0,1-.42-.452l.28-6.116a.424.424,0,0,1,.46-.412.435.435,0,0,1,.42.452Z" transform="translate(-62.29 -180)" fill="#fff"/>
      </g>
    </g>
    <g id="Group_17" data-name="Group 17" transform="translate(31)">
      <g id="Group_16" data-name="Group 16">
        <path id="Path_7" data-name="Path 7" d="M41.986,1.731H40.668V1.3A1.31,1.31,0,0,0,39.35,0H35.834a1.31,1.31,0,0,0-1.318,1.3v.433H33.2A2.183,2.183,0,0,0,31,3.895v.433H44.184V3.895A2.183,2.183,0,0,0,41.986,1.731Zm-2.2,0H35.395V1.3a.436.436,0,0,1,.439-.433H39.35a.437.437,0,0,1,.439.433Z" transform="translate(-31 0)" fill="#fff"/>
      </g>
    </g>
  </g>
</svg>
